<?xml version="1.0" encoding="UTF-8"?>
<svg width="22px" height="22px" viewBox="0 0 22 22" version="1.1" xmlns="http://www.w3.org/2000/svg" xmlns:xlink="http://www.w3.org/1999/xlink">
    <!-- Generator: Sketch 61 (89581) - https://sketch.com -->
    <title>Alert Icon</title>
    <desc>Created with Sketch.</desc>
    <g id="HIFI__V3" stroke="none" stroke-width="1" fill="none" fill-rule="evenodd">
        <g id="7" transform="translate(-437.000000, -1602.000000)" fill="#D2451E" fill-rule="nonzero">
            <g id="Alert-Notation" transform="translate(410.000000, 1576.000000)">
                <path d="M38,47.716 C39.976,47.716 41.8046667,47.222 43.486,46.234 C45.1153333,45.298 46.398,44.0153333 47.334,42.386 C48.322,40.7046667 48.816,38.876 48.816,36.9 C48.816,34.924 48.322,33.0953333 47.334,31.414 C46.398,29.7846667 45.1153333,28.502 43.486,27.566 C41.8046667,26.578 39.976,26.084 38,26.084 C36.0413333,26.084 34.2213333,26.578 32.54,27.566 C30.9106667,28.5193333 29.6193333,29.8106667 28.666,31.44 C27.678,33.1213333 27.184,34.9413333 27.184,36.9 C27.184,38.8586667 27.678,40.6786667 28.666,42.36 C29.602,43.9893333 30.8846667,45.2806667 32.514,46.234 C34.1953333,47.222 36.024,47.716 38,47.716 Z M38,45.584 C36.44,45.584 34.984,45.1853333 33.632,44.388 C32.3146667,43.6253333 31.2746667,42.5853333 30.512,41.268 C29.7146667,39.916 29.316,38.46 29.316,36.9 C29.316,35.34 29.7146667,33.884 30.512,32.532 C31.2746667,31.2146667 32.3146667,30.1746667 33.632,29.412 C34.984,28.6146667 36.44,28.216 38,28.216 C39.56,28.216 41.016,28.6146667 42.368,29.412 C43.6853333,30.1746667 44.7253333,31.2146667 45.488,32.532 C46.2853333,33.884 46.684,35.34 46.684,36.9 C46.684,38.46 46.2853333,39.916 45.488,41.268 C44.7253333,42.5853333 43.6853333,43.6253333 42.368,44.388 C41.016,45.1853333 39.56,45.584 38,45.584 Z M39.066,37.966 L39.066,31.466 L36.934,31.466 L36.934,37.966 L39.066,37.966 Z M39.066,42.334 L39.066,40.15 L36.934,40.15 L36.934,42.334 L39.066,42.334 Z" id="Alert-Icon"></path>
            </g>
        </g>
    </g>
</svg>