<?xml version="1.0" encoding="UTF-8" standalone="no"?>
<!DOCTYPE svg PUBLIC "-//W3C//DTD SVG 1.1//EN" "http://www.w3.org/Graphics/SVG/1.1/DTD/svg11.dtd">
<svg xmlns:xl="http://www.w3.org/1999/xlink" xmlns:dc="http://purl.org/dc/elements/1.1/" version="1.1" xmlns="http://www.w3.org/2000/svg" viewBox="172.5 721.5 55 55" width="55" height="55">
  <defs/>
  <g id="Canvas_1" stroke-dasharray="none" fill-opacity="1" fill="none" stroke-opacity="1" stroke="none">
    <g id="Canvas_1: Layer 1">
      <title>Layer 1</title>
      <g id="Graphic_8">
        <circle cx="200" cy="749" r="25.5000407464983" stroke="#2c7185" stroke-linecap="round" stroke-linejoin="round" stroke-width="4"/>
      </g>
      <g id="Graphic_48">
        <title/>
        <path d="M 201.404 741.476 C 200.324 741.476 199.562 741.266 199.118 740.846 C 198.674 740.426 198.452 739.904 198.452 739.28 C 198.452 739.16 198.464 738.998 198.488 738.794 C 198.512 738.59 198.56 738.272 198.632 737.84 C 198.752 737.072 199.076 736.484 199.604 736.076 C 200.132 735.668 200.936 735.464 202.016 735.464 C 203.096 735.464 203.858 735.674 204.302 736.094 C 204.746 736.514 204.968 737.036 204.968 737.66 C 204.968 737.78 204.956 737.942 204.932 738.146 C 204.908 738.35 204.86 738.668 204.788 739.1 C 204.668 739.868 204.344 740.456 203.816 740.864 C 203.288 741.272 202.484 741.476 201.404 741.476 Z M 199.928 762.932 C 198.44 762.932 197.324 762.542 196.58 761.762 C 195.836 760.982 195.464 759.932 195.464 758.612 C 195.464 758.204 195.488 757.808 195.536 757.424 C 195.584 757.04 195.68 756.476 195.824 755.732 L 197.264 748.028 L 191.648 748.028 L 192.332 743.924 L 203.276 743.924 L 200.504 758.684 L 201.116 758.864 L 206.156 753.716 L 209.036 756.272 L 206.84 758.792 C 205.616 760.16 204.47 761.192 203.402 761.888 C 202.334 762.584 201.176 762.932 199.928 762.932 Z" fill="#2c7185"/>
      </g>
    </g>
  </g>
</svg>
