<?xml version="1.0" encoding="UTF-8"?>
<svg width="18px" height="18px" viewBox="0 0 18 18" version="1.1" xmlns="http://www.w3.org/2000/svg" xmlns:xlink="http://www.w3.org/1999/xlink">
    <!-- Generator: Sketch 62 (91390) - https://sketch.com -->
    <title> copy</title>
    <desc>Created with Sketch.</desc>
    <g id="➡️-HIFI__V4" stroke="none" stroke-width="1" fill="none" fill-rule="evenodd">
        <g id="7" transform="translate(-983.000000, -3774.000000)" fill="#000000" fill-rule="nonzero">
            <g id="Supporting-Resources" transform="translate(410.000000, 3669.000000)">
                <path d="M584.016,105 L591,105 L591,111.984 L588.984,111.984 L588.984,108.432 L579.192,118.224 L577.776,116.808 L587.568,107.016 L584.016,107.016 L584.016,105 Z M588.984,120.984 L588.984,114 L591,114 L591,120.984 C591,121.528003 590.800002,122 590.4,122.4 C590,122.800002 589.528003,123 588.984,123 L575.016,123 C574.455997,123 573.980002,122.800002 573.588,122.4 C573.195998,122 573,121.528003 573,120.984 L573,107.016 C573,106.471997 573.195998,106 573.588,105.6 C573.980002,105.199998 574.455997,105 575.016,105 L582,105 L582,107.016 L575.016,107.016 L575.016,120.984 L588.984,120.984 Z" id="-copy"></path>
            </g>
        </g>
    </g>
</svg>