<?xml version="1.0" encoding="UTF-8"?>
<svg width="191px" height="47px" viewBox="0 0 191 47" version="1.1" xmlns="http://www.w3.org/2000/svg" xmlns:xlink="http://www.w3.org/1999/xlink">
    <!-- Generator: Sketch 62 (91390) - https://sketch.com -->
    <title>InterSystems_Logo</title>
    <desc>Created with Sketch.</desc>
    <g id="➡️-HIFI__V4" stroke="none" stroke-width="1" fill="none" fill-rule="evenodd">
        <g id="5" transform="translate(-50.000000, -61.000000)" fill-rule="nonzero">
            <g id="Nav/Sidebar/Home" transform="translate(-1.000000, 36.000000)">
                <g id="InterSystems_Logo">
                    <g transform="translate(51.000000, 25.000000)">
                        <g id="g10" transform="translate(95.500000, 23.296253) scale(-1, 1) rotate(-180.000000) translate(-95.500000, -23.296253) translate(0.000000, 0.296253)">
                            <g id="g12">
                                <polygon id="path14" fill="#2F2A96" points="24.9459451 19.0632823 28.8262666 19.0632823 28.8262666 39.9112209 24.9459451 39.9112209 24.9459451 19.0632823"></polygon>
                                <path d="M44.2910837,19.0632823 L40.4685147,19.0632823 L40.4685147,27.780189 C40.4685147,29.8072954 39.0784084,30.6763454 37.6305333,30.6763454 C36.182577,30.6763454 34.7924707,29.8072954 34.7924707,27.780189 L34.7924707,19.0632823 L30.9695767,19.0632823 L30.9695767,34.0066206 L34.7924707,34.0066206 L34.7924707,32.7034518 C35.4583145,33.7171269 36.9642833,34.4118956 38.2967021,34.4118956 C41.3372398,34.4118956 44.2910837,32.3270205 44.2910837,27.9248953 L44.2910837,19.0632823" id="path16" fill="#2F2A96"></path>
                                <path d="M53.9348092,22.509745 L53.9348092,19.0632823 L50.2569465,19.0632823 C47.5928401,19.0632823 46.4343776,20.4823136 46.4343776,22.8861763 L46.4343776,37.3949896 L50.2569465,37.3949896 L50.2569465,34.0066206 L53.9348092,34.0066206 L53.9348092,30.5604829 L50.2569465,30.5604829 L50.2569465,23.6967263 C50.2569465,23.0020388 50.4305778,22.509745 51.3573153,22.509745 L53.9348092,22.509745" id="path18" fill="#2F2A96"></path>
                                <path d="M58.9738532,28.7069266 L58.9738532,28.6780828 L64.6210536,28.6780828 L64.6210536,28.7069266 C64.505191,30.2707454 63.5203597,31.2555767 61.8119159,31.2555767 C60.1030658,31.2555767 59.1185595,30.2418204 58.9738532,28.7069266 L58.9738532,28.7069266 Z M58.9738532,25.5213577 L58.9738532,25.4344201 C58.9738532,23.6682076 59.9876096,22.509745 61.8119159,22.509745 C63.1439285,22.509745 64.0707473,23.146745 64.4470973,24.1600951 L68.32776,24.1600951 C67.719685,21.0326199 65.4608536,19.0632823 61.8119159,19.0632823 C57.5256532,19.0632823 55.1509593,21.7854824 55.1509593,25.9270389 L55.1509593,27.8382828 C55.1509593,31.9795143 57.5256532,34.7017144 61.8119159,34.7017144 C66.0981786,34.7017144 68.4727913,31.9795143 68.4727913,27.8382828 L68.4727913,25.5213577 L58.9738532,25.5213577" id="path20" fill="#2F2A96"></path>
                                <path d="M74.4964228,19.0632823 L70.6738539,19.0632823 L70.6738539,34.0066206 L74.4964228,34.0066206 L74.4964228,32.3847893 C74.9309479,33.3696206 76.2051917,34.2671894 77.9717293,34.2671894 L79.1298669,34.2671894 L79.1298669,30.5315579 L77.3348105,30.5315579 C75.8865292,30.5315579 74.4964228,29.6625891 74.4964228,27.6354828 L74.4964228,19.0632823" id="path22" fill="#2F2A96"></path>
                                <path d="M80.9637607,25.7530827 L84.9598797,25.7530827 C85.1922547,24.0446388 86.5239423,22.91502 88.4641924,22.91502 C90.17288,22.91502 91.360755,23.55202 91.360755,24.9421264 C91.360755,26.0717452 90.694505,26.7087452 89.2750674,27.0850952 L85.8576922,28.011914 C82.7596296,28.8520391 81.2243295,31.0238517 81.2243295,34.0066206 C81.2243295,38.0608333 84.4098171,39.9143897 87.9433798,39.9143897 C91.9977551,39.9143897 94.5173177,37.5396958 94.9511927,34.0935581 L90.9553175,34.0935581 C90.6075675,35.4544957 89.1881299,36.062977 87.8848798,36.062977 C86.2631297,36.062977 85.1053172,35.4256519 85.1053172,34.0066206 C85.1053172,32.8193143 86.0315672,32.2981768 87.1325048,32.008358 L90.4336925,31.1104642 C93.5610051,30.2707454 95.2412552,28.3594203 95.2412552,24.9421264 C95.2412552,21.2931887 92.8663176,19.0632823 88.4641924,19.0632823 C84.0336296,19.0632823 81.1665607,21.7277137 80.9637607,25.7530827" id="path24" fill="#2F2A96"></path>
                                <path d="M104.502943,17.7311885 C103.692068,15.4724384 103.460506,13.821682 100.796318,13.821682 L97.9582554,13.821682 L97.9582554,17.2678197 L99.5507555,17.2678197 C100.245443,17.2678197 100.448568,17.6154072 100.564756,17.9340697 L100.998631,19.1502198 L95.6702553,34.0935581 L99.6953805,34.0935581 L103.025818,24.5657764 L106.356256,34.0935581 L110.382194,34.0935581 L104.502943,17.7311885" id="path26" fill="#2F2A96"></path>
                                <path d="M110.034444,24.1893451 L113.857256,24.1893451 C114.031131,23.0308825 115.392069,22.509745 116.636819,22.509745 C117.390006,22.509745 118.519382,22.6833762 118.519382,23.6682076 C118.519382,24.2762826 118.085506,24.6235451 117.187694,24.8263451 L114.059569,25.5213577 C112.437819,25.8977889 110.382194,27.172114 110.382194,30.0971142 C110.382194,33.0221143 113.017131,34.7017144 116.086756,34.7017144 C119.127944,34.7017144 121.618257,33.2537581 121.879069,29.8653891 L117.969319,29.8653891 C117.766194,30.8210517 116.926881,31.2555767 115.971381,31.2555767 C114.870444,31.2555767 114.233444,30.8210517 114.204194,30.1259579 C114.204194,29.4889579 114.725819,29.1703766 115.362819,29.0255891 L118.722507,28.2724828 C120.344257,27.8960515 122.342194,26.766839 122.342194,23.6682076 C122.342194,20.3376074 119.648757,19.0632823 116.521444,19.0632823 C113.422569,19.0632823 110.179069,20.6561886 110.034444,24.1893451" id="path28" fill="#2F2A96"></path>
                                <path d="M136.550383,28.7069266 L136.550383,28.6780828 L142.197258,28.6780828 L142.197258,28.7069266 C142.081883,30.2707454 141.097133,31.2555767 139.388445,31.2555767 C137.679758,31.2555767 136.695008,30.2418204 136.550383,28.7069266 Z M136.550383,25.5213577 L136.550383,25.4344201 C136.550383,23.6682076 137.564383,22.509745 139.388445,22.509745 C140.720945,22.509745 141.647195,23.146745 142.024195,24.1600951 L145.904696,24.1600951 C145.296133,21.0326199 143.037383,19.0632823 139.388445,19.0632823 C135.102507,19.0632823 132.72757,21.7854824 132.72757,25.9270389 L132.72757,27.8382828 C132.72757,31.9795143 135.102507,34.7017144 139.388445,34.7017144 C143.674383,34.7017144 146.049321,31.9795143 146.049321,27.8382828 L146.049321,25.5213577 L136.550383,25.5213577" id="path30" fill="#2F2A96"></path>
                                <path d="M161.398259,19.0632823 L157.575446,19.0632823 L157.575446,27.780189 C157.575446,29.7784516 156.185259,30.6763454 154.824321,30.6763454 C153.463383,30.6763454 152.073196,29.7784516 152.073196,27.780189 L152.073196,19.0632823 L148.250383,19.0632823 L148.250383,34.0066206 L152.073196,34.0066206 L152.073196,32.7612206 C152.797133,33.7748956 154.158071,34.4118956 155.461321,34.4118956 C157.025384,34.4118956 158.444009,33.8329894 159.487259,32.442883 C160.558134,33.7460519 162.092946,34.4118956 164.149384,34.4118956 C167.942947,34.4118956 170.723322,32.2981768 170.723322,27.9248953 L170.723322,19.0632823 L166.900509,19.0632823 L166.900509,27.780189 C166.900509,29.7784516 165.510322,30.6763454 164.149384,30.6763454 C162.788446,30.6763454 161.398259,29.7784516 161.398259,27.780189 L161.398259,19.0632823" id="path32" fill="#2F2A96"></path>
                                <path d="M172.172009,24.1893451 L175.994822,24.1893451 C176.167885,23.0308825 177.528822,22.509745 178.774385,22.509745 C179.527572,22.509745 180.656947,22.6833762 180.656947,23.6682076 C180.656947,24.2762826 180.22226,24.6235451 179.324447,24.8263451 L176.197135,25.5213577 C174.575385,25.8977889 172.518947,27.172114 172.518947,30.0971142 C172.518947,33.0221143 175.154697,34.7017144 178.224322,34.7017144 C181.264697,34.7017144 183.755823,33.2537581 184.015823,29.8653891 L180.106885,29.8653891 C179.90376,30.8210517 179.064447,31.2555767 178.108135,31.2555767 C177.00801,31.2555767 176.37101,30.8210517 176.34176,30.1259579 C176.34176,29.4889579 176.863385,29.1703766 177.500385,29.0255891 L180.85926,28.2724828 C182.48101,27.8960515 184.47976,26.766839 184.47976,23.6682076 C184.47976,20.3376074 181.786323,19.0632823 178.65901,19.0632823 C175.560135,19.0632823 172.316634,20.6561886 172.172009,24.1893451" id="path34" fill="#2F2A96"></path>
                                <path d="M131.10907,22.509745 L131.10907,19.0632823 L127.430882,19.0632823 C124.766694,19.0632823 123.608069,20.4823136 123.608069,22.8861763 L123.608069,37.3949896 L127.430882,37.3949896 L127.430882,34.0066206 L131.10907,34.0066206 L131.10907,30.5604829 L127.430882,30.5604829 L127.430882,23.6967263 C127.430882,23.0020388 127.604757,22.509745 128.53182,22.509745 L131.10907,22.509745" id="path36" fill="#2F2A96"></path>
                                <polyline id="path38" fill="#2F2A96" points="29.3166266 11.3045569 30.8029329 11.3045569 30.8029329 3.53945332 29.3166266 3.53945332 29.3166266 6.72312099 26.4322515 6.72312099 26.4322515 3.53945332 24.9459451 3.53945332 24.9459451 11.3045569 26.4322515 11.3045569 26.4322515 8.19861295 29.3166266 8.19861295 29.3166266 11.3045569"></polyline>
                                <path d="M33.6063831,7.12239164 L33.6063831,7.11159352 L35.7693395,7.11159352 L35.7693395,7.12239164 C35.7252207,7.72129355 35.3482207,8.0986592 34.6934269,8.0986592 C34.0389581,8.0986592 33.6619581,7.71049542 33.6063831,7.12239164 L33.6063831,7.12239164 Z M33.6063831,5.90236595 L33.6063831,5.86904532 C33.6063831,5.19238716 33.9945956,4.74868089 34.6934269,4.74868089 C35.2037582,4.74868089 35.558902,4.99274777 35.7030395,5.38091155 L37.1893458,5.38091155 C36.956727,4.18279086 36.0911707,3.42836831 34.6934269,3.42836831 C33.0519331,3.42836831 32.1423393,4.47129337 32.1423393,6.05756971 L32.1423393,6.78977037 C32.1423393,8.37606296 33.0519331,9.41898802 34.6934269,9.41898802 C36.3352457,9.41898802 37.2451645,8.37606296 37.2451645,6.78977037 L37.2451645,5.90236595 L33.6063831,5.90236595" id="path40" fill="#2F2A96"></path>
                                <path d="M39.7956834,5.29235717 C39.7956834,5.01496965 40.006446,4.71536026 40.6608335,4.71536026 C41.415321,4.71536026 42.0142148,5.13684466 42.0142148,5.85793845 L42.0142148,6.04646283 C41.182296,5.9912372 40.383446,5.92458783 40.1063835,5.78017407 C39.8619834,5.65829906 39.7956834,5.53610718 39.7956834,5.29235717 L39.7956834,5.29235717 Z M41.9919523,7.26679727 C41.8923398,7.77715293 41.5263898,8.0986592 40.927171,8.0986592 C40.4168397,8.0986592 40.0616147,7.85459231 39.9175584,7.46642854 L38.4423834,7.46642854 C38.6753271,8.66458173 39.5294272,9.41898802 40.927171,9.41898802 C42.5686648,9.41898802 43.4785836,8.37606296 43.4785836,6.78977037 L43.4785836,3.53945332 L42.0142148,3.53945332 L42.0142148,4.19389773 C41.7478773,3.76130646 41.293121,3.42836831 40.4168397,3.42836831 C39.1079022,3.42836831 38.3313146,4.07202272 38.3313146,5.12572966 C38.3313146,5.95759158 38.6197521,6.45684036 39.4186022,6.83388913 C39.9841834,7.10048664 41.1268023,7.18904102 41.9919523,7.2556904 L41.9919523,7.26679727" id="path42" fill="#2F2A96"></path>
                                <path d="M47.0380651,4.85944902 L47.0380651,3.53945332 L46.3280213,3.53945332 C45.3076837,3.53945332 44.8639775,4.0831296 44.8639775,5.00385465 L44.8639775,11.3045569 L46.3280213,11.3045569 L46.3280213,5.31426217 C46.3280213,5.0479734 46.3947276,4.85944902 46.7495463,4.85944902 L47.0380651,4.85944902" id="path44" fill="#2F2A96"></path>
                                <path d="M51.2970278,4.85944902 L51.2970278,3.53945332 L49.8884777,3.53945332 C48.8677339,3.53945332 48.4240277,4.0831296 48.4240277,5.00385465 L48.4240277,7.94345544 L47.6143714,7.94345544 L47.6143714,9.26347551 L48.4240277,9.26347551 L48.4240277,10.5612006 L49.8884777,10.5612006 L49.8884777,9.26347551 L51.2970278,9.26347551 L51.2970278,7.94345544 L49.8884777,7.94345544 L49.8884777,5.31426217 C49.8884777,5.0479734 49.9551027,4.85944902 50.3099215,4.85944902 L51.2970278,4.85944902" id="path46" fill="#2F2A96"></path>
                                <path d="M57.4973782,3.53945332 L56.0333343,3.53945332 L56.0333343,6.87864163 C56.0333343,7.65495292 55.5007406,7.98789106 54.9459655,7.98789106 C54.3915155,7.98789106 53.8589217,7.65495292 53.8589217,6.87864163 L53.8589217,3.53945332 L52.3947966,3.53945332 L52.3947966,11.3045569 L53.8589217,11.3045569 L53.8589217,8.76419423 C54.114128,9.15240675 54.6910843,9.41898802 55.2014155,9.41898802 C56.3658906,9.41898802 57.4973782,8.62013797 57.4973782,6.93385913 L57.4973782,3.53945332" id="path48" fill="#2F2A96"></path>
                                <path d="M71.3930789,5.07018715 C72.0030227,5.07018715 72.324854,5.38091155 72.324854,5.92458783 C72.324854,6.47905411 71.958904,6.7786635 71.3930789,6.7786635 L69.4404788,6.7786635 L69.4404788,5.07018715 L71.3930789,5.07018715 Z M71.2044977,9.88455054 L69.4404788,9.88455054 L69.4404788,8.25418795 L71.2044977,8.25418795 C71.7704039,8.25418795 72.136354,8.54270672 72.136354,9.07489425 C72.136354,9.61861928 71.7704039,9.88455054 71.2044977,9.88455054 Z M67.9541725,11.3600506 L71.1711852,11.3600506 C72.746379,11.3600506 73.6226603,10.4727193 73.6226603,9.13046925 C73.6226603,8.48680672 73.3900415,7.92124169 72.9237478,7.56608979 C73.4674728,7.15571227 73.8111603,6.55681036 73.8111603,5.86904532 C73.8111603,4.49350712 72.9460103,3.59499582 71.3486352,3.59499582 L67.9541725,3.59499582 L67.9541725,11.3600506" id="path50" fill="#2F2A96"></path>
                                <path d="M78.4805168,6.02424096 L78.4805168,9.31896926 L79.9449669,9.31896926 L79.9449669,3.59499582 L78.4805168,3.59499582 L78.4805168,4.21611148 C78.2364418,3.82795584 77.7927355,3.48391082 77.0939042,3.48391082 C76.0290417,3.48391082 74.9083604,4.24944023 74.9083604,5.96901533 L74.9083604,9.31896926 L76.3731355,9.31896926 L76.3731355,6.02424096 C76.3731355,5.25903654 76.894273,4.91499152 77.4264605,4.91499152 C77.9593793,4.91499152 78.4805168,5.25903654 78.4805168,6.02424096" id="path52" fill="#2F2A96"></path>
                                <path d="M81.0310357,5.44756092 L82.495567,5.44756092 C82.5613795,5.00385465 83.0830046,4.80422339 83.5599421,4.80422339 C83.8483796,4.80422339 84.2814421,4.87055589 84.2814421,5.24792154 C84.2814421,5.48056468 84.1148796,5.61387156 83.7711921,5.69162781 L82.5727545,5.95790845 C81.9520045,6.10200534 81.1639607,6.59013911 81.1639607,7.71049542 C81.1639607,8.83090049 82.1730045,9.47415677 83.3495046,9.47415677 C84.5138171,9.47415677 85.4676922,8.91970674 85.5676297,7.62163229 L84.0701921,7.62163229 C83.9930046,7.98757419 83.6704421,8.1541692 83.3048171,8.1541692 C82.8831296,8.1541692 82.6393795,7.98757419 82.6280045,7.72161042 C82.6280045,7.47754354 82.8278796,7.35566853 83.0716296,7.30012603 L84.3586296,7.01162351 C84.9801922,6.86752663 85.7455672,6.43493535 85.7455672,5.24792154 C85.7455672,3.97204459 84.7136922,3.48391082 83.5160671,3.48391082 C82.3290045,3.48391082 81.0862045,4.09423648 81.0310357,5.44756092" id="path54" fill="#2F2A96"></path>
                                <path d="M88.3398799,3.59499582 L86.8757548,3.59499582 L86.8757548,9.31896926 L88.3398799,9.31896926 L88.3398799,3.59499582 Z M88.3398799,10.0623256 L86.8757548,10.0623256 L86.8757548,11.3600506 L88.3398799,11.3600506 L88.3398799,10.0623256" id="path56" fill="#2F2A96"></path>
                                <path d="M94.9284427,3.59499582 L93.4643176,3.59499582 L93.4643176,6.93418413 C93.4643176,7.71049542 92.9321301,8.04343357 92.3771926,8.04343357 C91.8230676,8.04343357 91.2900675,7.71049542 91.2900675,6.93418413 L91.2900675,3.59499582 L89.8259424,3.59499582 L89.8259424,9.31896926 L91.2900675,9.31896926 L91.2900675,8.81976924 C91.5451925,9.20790051 92.1220676,9.47415677 92.6323176,9.47415677 C93.7974427,9.47415677 94.9284427,8.67530673 94.9284427,6.98940163 L94.9284427,3.59499582" id="path58" fill="#2F2A96"></path>
                                <path d="M97.6235054,7.17793414 L97.6235054,7.16713602 L99.7863805,7.16713602 L99.7863805,7.17793414 C99.7425055,7.77715293 99.3655055,8.1541692 98.7106304,8.1541692 C98.0557554,8.1541692 97.6787554,7.76572105 97.6235054,7.17793414 L97.6235054,7.17793414 Z M97.6235054,5.95790845 L97.6235054,5.92458783 C97.6235054,5.24792154 98.0118804,4.80422339 98.7106304,4.80422339 C99.2208805,4.80422339 99.575943,5.04829028 99.7197555,5.43645405 L101.206631,5.43645405 C100.973443,4.23833336 100.108131,3.48391082 98.7106304,3.48391082 C97.0685678,3.48391082 96.1593803,4.52682775 96.1593803,6.11311221 L96.1593803,6.84531288 C96.1593803,8.43155671 97.0685678,9.47415677 98.7106304,9.47415677 C100.351881,9.47415677 101.261881,8.43155671 101.261881,6.84531288 L101.261881,5.95790845 L97.6235054,5.95790845" id="path60" fill="#2F2A96"></path>
                                <path d="M102.159693,5.44756092 L103.623818,5.44756092 C103.690443,5.00385465 104.212068,4.80422339 104.689006,4.80422339 C104.977443,4.80422339 105.409693,4.87055589 105.409693,5.24792154 C105.409693,5.48056468 105.243943,5.61387156 104.899443,5.69162781 L103.701818,5.95790845 C103.080256,6.10200534 102.292943,6.59013911 102.292943,7.71049542 C102.292943,8.83090049 103.302068,9.47415677 104.478568,9.47415677 C105.642881,9.47415677 106.596756,8.91970674 106.696693,7.62163229 L105.199256,7.62163229 C105.121256,7.98757419 104.799506,8.1541692 104.433881,8.1541692 C104.012193,8.1541692 103.768443,7.98757419 103.757068,7.72161042 C103.757068,7.47754354 103.956943,7.35566853 104.200693,7.30012603 L105.487693,7.01162351 C106.109256,6.86752663 106.874631,6.43493535 106.874631,5.24792154 C106.874631,3.97204459 105.842756,3.48391082 104.644318,3.48391082 C103.457256,3.48391082 102.214943,4.09423648 102.159693,5.44756092" id="path62" fill="#2F2A96"></path>
                                <path d="M107.539256,5.44756092 L109.003381,5.44756092 C109.070006,5.00385465 109.591631,4.80422339 110.068569,4.80422339 C110.357006,4.80422339 110.789256,4.87055589 110.789256,5.24792154 C110.789256,5.48056468 110.622694,5.61387156 110.279006,5.69162781 L109.080569,5.95790845 C108.459818,6.10200534 107.672506,6.59013911 107.672506,7.71049542 C107.672506,8.83090049 108.681631,9.47415677 109.857319,9.47415677 C111.022444,9.47415677 111.976319,8.91970674 112.076256,7.62163229 L110.578819,7.62163229 C110.500819,7.98757419 110.179069,8.1541692 109.812631,8.1541692 C109.391756,8.1541692 109.147194,7.98757419 109.136631,7.72161042 C109.136631,7.47754354 109.336506,7.35566853 109.580256,7.30012603 L110.867256,7.01162351 C111.488006,6.86752663 112.253381,6.43493535 112.253381,5.24792154 C112.253381,3.97204459 111.221506,3.48391082 110.023881,3.48391082 C108.836818,3.48391082 107.594506,4.09423648 107.539256,5.44756092" id="path64" fill="#2F2A96"></path>
                                <path d="M125.705132,7.97678419 L128.633382,7.97678419 L128.633382,6.3016366 C128.633382,4.58237025 127.569007,3.42836831 125.705132,3.42836831 C123.841257,3.42836831 122.776069,4.58237025 122.776069,6.3016366 L122.776069,8.54238172 C122.776069,10.2619568 123.841257,11.4153006 125.705132,11.4153006 C127.457695,11.4153006 128.500132,10.3949631 128.62282,8.85308174 L127.124569,8.85308174 C126.992132,9.55199428 126.414444,9.94012555 125.705132,9.94012555 C124.895069,9.94012555 124.262944,9.44084427 124.262944,8.54238172 L124.262944,6.3016366 C124.262944,5.4031253 124.895069,4.90388464 125.705132,4.90388464 C126.514382,4.90388464 127.146507,5.4031253 127.146507,6.3016366 L127.146507,6.50126786 L125.705132,6.50126786 L125.705132,7.97678419" id="path66" fill="#2F2A96"></path>
                                <path d="M133.380007,6.97829476 C133.380007,7.65495292 132.991632,8.0986592 132.292882,8.0986592 C131.594132,8.0986592 131.205757,7.65495292 131.205757,6.97829476 L131.205757,5.86904532 C131.205757,5.19238716 131.594132,4.74868089 132.292882,4.74868089 C132.991632,4.74868089 133.380007,5.19238716 133.380007,5.86904532 L133.380007,6.97829476 Z M129.741632,6.78977037 C129.741632,8.37606296 130.651632,9.41898802 132.292882,9.41898802 C133.934945,9.41898802 134.844945,8.37606296 134.844945,6.78977037 L134.844945,6.05756971 C134.844945,4.47129337 133.934945,3.42836831 132.292882,3.42836831 C130.651632,3.42836831 129.741632,4.47129337 129.741632,6.05756971 L129.741632,6.78977037" id="path68" fill="#2F2A96"></path>
                                <polyline id="path70" fill="#2F2A96" points="139.457508 9.26347551 140.999633 9.26347551 138.936695 3.53945332 137.427883 3.53945332 135.364132 9.26347551 136.906258 9.26347551 138.181883 5.61387156 139.457508 9.26347551"></polyline>
                                <path d="M142.98457,7.12239164 L142.98457,7.11159352 L145.147445,7.11159352 L145.147445,7.12239164 C145.10357,7.72129355 144.72657,8.0986592 144.071695,8.0986592 C143.417633,8.0986592 143.03982,7.71049542 142.98457,7.12239164 L142.98457,7.12239164 Z M142.98457,5.90236595 L142.98457,5.86904532 C142.98457,5.19238716 143.372945,4.74868089 144.071695,4.74868089 C144.581945,4.74868089 144.937008,4.99274777 145.081633,5.38091155 L146.567696,5.38091155 C146.334508,4.18279086 145.469196,3.42836831 144.071695,3.42836831 C142.430445,3.42836831 141.520445,4.47129337 141.520445,6.05756971 L141.520445,6.78977037 C141.520445,8.37606296 142.430445,9.41898802 144.071695,9.41898802 C145.713758,9.41898802 146.623758,8.37606296 146.623758,6.78977037 L146.623758,5.90236595 L142.98457,5.90236595" id="path72" fill="#2F2A96"></path>
                                <path d="M149.384633,3.53945332 L147.920508,3.53945332 L147.920508,9.26347551 L149.384633,9.26347551 L149.384633,8.64199423 C149.551196,9.0194005 150.039508,9.36341302 150.715508,9.36341302 L151.159133,9.36341302 L151.159133,7.93234856 L150.471758,7.93234856 C149.916821,7.93234856 149.384633,7.59973542 149.384633,6.82309913 L149.384633,3.53945332" id="path74" fill="#2F2A96"></path>
                                <path d="M157.215509,3.53945332 L155.751384,3.53945332 L155.751384,6.87864163 C155.751384,7.65495292 155.218384,7.98789106 154.664259,7.98789106 C154.109321,7.98789106 153.577133,7.65495292 153.577133,6.87864163 L153.577133,3.53945332 L152.113008,3.53945332 L152.113008,9.26347551 L153.577133,9.26347551 L153.577133,8.76419423 C153.832258,9.15240675 154.409133,9.41898802 154.919384,9.41898802 C156.084509,9.41898802 157.215509,8.62013797 157.215509,6.93385913 L157.215509,3.53945332" id="path76" fill="#2F2A96"></path>
                                <path d="M163.659447,3.53945332 L162.195321,3.53945332 L162.195321,6.87864163 C162.195321,7.64384605 161.663134,7.98789106 161.141509,7.98789106 C160.619884,7.98789106 160.087696,7.64384605 160.087696,6.87864163 L160.087696,3.53945332 L158.623571,3.53945332 L158.623571,9.26347551 L160.087696,9.26347551 L160.087696,8.78645673 C160.364759,9.174588 160.886384,9.41898802 161.385259,9.41898802 C161.984071,9.41898802 162.528446,9.19709426 162.927384,8.66458173 C163.337696,9.16345675 163.925947,9.41898802 164.713259,9.41898802 C166.166009,9.41898802 167.231197,8.60900672 167.231197,6.93385913 L167.231197,3.53945332 L165.767072,3.53945332 L165.767072,6.87864163 C165.767072,7.64384605 165.234884,7.98789106 164.713259,7.98789106 C164.191634,7.98789106 163.659447,7.64384605 163.659447,6.87864163 L163.659447,3.53945332" id="path78" fill="#2F2A96"></path>
                                <path d="M169.925447,7.12239164 L169.925447,7.11159352 L172.088322,7.11159352 L172.088322,7.12239164 C172.044447,7.72129355 171.667447,8.0986592 171.012572,8.0986592 C170.358509,8.0986592 169.980697,7.71049542 169.925447,7.12239164 Z M169.925447,5.90236595 L169.925447,5.86904532 C169.925447,5.19238716 170.313822,4.74868089 171.012572,4.74868089 C171.522822,4.74868089 171.877884,4.99274777 172.022509,5.38091155 L173.508572,5.38091155 C173.275385,4.18279086 172.410072,3.42836831 171.012572,3.42836831 C169.371322,3.42836831 168.461322,4.47129337 168.461322,6.05756971 L168.461322,6.78977037 C168.461322,8.37606296 169.371322,9.41898802 171.012572,9.41898802 C172.654634,9.41898802 173.563822,8.37606296 173.563822,6.78977037 L173.563822,5.90236595 L169.925447,5.90236595" id="path80" fill="#2F2A96"></path>
                                <path d="M179.963885,3.53945332 L178.49976,3.53945332 L178.49976,6.87864163 C178.49976,7.65495292 177.967572,7.98789106 177.412635,7.98789106 C176.857697,7.98789106 176.32551,7.65495292 176.32551,6.87864163 L176.32551,3.53945332 L174.861385,3.53945332 L174.861385,9.26347551 L176.32551,9.26347551 L176.32551,8.76419423 C176.580635,9.15240675 177.15751,9.41898802 177.66776,9.41898802 C178.832885,9.41898802 179.963885,8.62013797 179.963885,6.93385913 L179.963885,3.53945332" id="path82" fill="#2F2A96"></path>
                                <path d="M184.432635,4.85944902 L184.432635,3.53945332 L183.02376,3.53945332 C182.00326,3.53945332 181.559635,4.0831296 181.559635,5.00385465 L181.559635,7.94345544 L180.749572,7.94345544 L180.749572,9.26347551 L181.559635,9.26347551 L181.559635,10.5612006 L183.02376,10.5612006 L183.02376,9.26347551 L184.432635,9.26347551 L184.432635,7.94345544 L183.02376,7.94345544 L183.02376,5.31426217 C183.02376,5.0479734 183.090385,4.85944902 183.445448,4.85944902 L184.432635,4.85944902" id="path84" fill="#2F2A96"></path>
                                <polygon id="path86" fill="#3AAE9B" points="62.0070784 3.53945332 63.4445047 3.53945332 63.4445047 11.3045406 62.0070784 11.3045406"></polygon>
                                <polygon id="path88" fill="#25B4A9" points="116.763569 3.53945332 118.200995 3.53945332 118.200995 11.3045406 116.763569 11.3045406"></polygon>
                                <path d="M187.890635,33.2931643 L188.565823,33.2931643 C188.803885,33.2931643 188.962323,33.1741331 188.962323,32.9357456 C188.962323,32.7041018 188.803885,32.5850705 188.565823,32.5850705 L187.890635,32.5850705 L187.890635,33.2931643 Z M189.511573,30.9762392 L188.810385,32.1680143 C189.201198,32.2473955 189.42626,32.5186893 189.42626,32.9424081 C189.42626,33.4455081 189.10126,33.7432081 188.565823,33.7432081 L187.439698,33.7432081 L187.439698,30.9762392 L187.890635,30.9762392 L187.890635,32.1480268 L188.320448,32.1480268 L189.008635,30.9762392 L189.511573,30.9762392 L189.511573,30.9762392 Z M188.36026,30.4005017 C189.44576,30.4005017 190.31351,31.2742642 190.31351,32.360008 C190.31351,33.4455081 189.44576,34.3192706 188.36026,34.3192706 C187.27476,34.3192706 186.407823,33.4455081 186.407823,32.360008 C186.407823,31.2742642 187.27476,30.4005017 188.36026,30.4005017 Z M188.36026,34.7429082 C189.677323,34.7429082 190.743323,33.6768269 190.743323,32.360008 C190.743323,31.0426205 189.677323,29.9767829 188.36026,29.9767829 C187.043198,29.9767829 185.977198,31.0426205 185.977198,32.360008 C185.977198,33.6768269 187.043198,34.7429082 188.36026,34.7429082" id="path90" fill="#2F2A96"></path>
                                <polyline id="path92" fill="#2F2A96" points="5.72939282 39.2412334 0 42.1081398 0 5.73352032 11.4587694 0 11.4587694 6.4073266 5.72939282 9.27330676 5.72939282 39.2412334"></polyline>
                                <polyline id="path94" fill="#25B4A9" points="11.4587694 6.4073266 17.1881947 3.53881957 17.1881947 39.9143897 5.72939282 45.6478775 5.72939282 39.2412334 11.4587694 36.3758708 11.4587694 6.4073266"></polyline>
                            </g>
                        </g>
                    </g>
                </g>
            </g>
        </g>
    </g>
</svg>