<?xml version="1.0" encoding="utf-8"?>
<!-- Generator: Adobe Illustrator 24.0.1, SVG Export Plug-In . SVG Version: 6.00 Build 0)  -->
<svg version="1.1" id="Layer_1" xmlns="http://www.w3.org/2000/svg" xmlns:xlink="http://www.w3.org/1999/xlink" x="0px" y="0px"
	 viewBox="0 0 180.4 47" style="enable-background:new 0 0 180.4 47;" xml:space="preserve">
<style type="text/css">
	.st0{fill:#FFFFFF;}
	.st1{fill:#00B2A9;}
</style>
<title>InterSystems_Logo</title>
<desc>Created with Sketch.</desc>
<g>
	<g>
		<path class="st0" d="M28,15.4h-1.5v-8h3.3c1.9,0,2.8,1.3,2.8,2.8c0,1.5-0.9,2.8-2.8,2.8H28V15.4z M29.7,11.4
			c0.8,0,1.2-0.6,1.2-1.3c0-0.6-0.4-1.2-1.2-1.2H28v2.5H29.7z"/>
		<path class="st0" d="M36.3,15.5c-1.9,0-3-1.2-3-3v-2.3c0-1.8,1.1-3,3-3s3,1.2,3,3v2.3C39.4,14.3,38.3,15.5,36.3,15.5z M37.8,10.3
			c0-0.9-0.7-1.4-1.5-1.4s-1.5,0.5-1.5,1.4v2.3c0,0.9,0.7,1.4,1.5,1.4s1.5-0.5,1.5-1.4V10.3z"/>
		<path class="st0" d="M44.6,13.1l0.7-5.7h1.5l-1.1,8h-1.5l-0.7-4.8l-0.7,4.8h-1.5l-1.1-8h1.5l0.7,5.7l0.7-4.6h1L44.6,13.1z"/>
		<path class="st0" d="M49.8,10.6h2.5v1.5h-2.5v1.8h3.3v1.5h-4.9v-8h4.9v1.5h-3.3V10.6z"/>
		<path class="st0" d="M56.4,12.1v3.3h-1.5v-8h3.4c1.6,0,2.5,0.9,2.5,2.4c0,1.2-0.6,2-1.7,2.3l2,3.4h-1.8l-1.9-3.3H56.4z M58.3,8.9
			h-1.9v1.7h1.9c0.6,0,1-0.3,1-0.8C59.2,9.2,58.9,8.9,58.3,8.9z"/>
		<path class="st0" d="M64,10.6h2.5v1.5H64v1.8h3.3v1.5h-4.9v-8h4.9v1.5H64V10.6z"/>
		<path class="st0" d="M68.9,15.4v-8h3c1.9,0,3,1.2,3,3v2.1c0,1.8-1.1,3-3,3H68.9z M73.4,10.4c0-0.9-0.7-1.4-1.5-1.4h-1.5v5h1.5
			c0.8,0,1.5-0.5,1.5-1.4V10.4z"/>
		<path class="st0" d="M79.8,7.4h3.3c1.6,0,2.5,0.9,2.5,2.3c0,0.7-0.2,1.2-0.7,1.6c0.6,0.4,0.9,1,0.9,1.7c0,1.4-0.9,2.3-2.5,2.3
			h-3.5V7.4z M83.2,8.9h-1.8v1.7h1.8c0.6,0,1-0.3,1-0.8C84.1,9.2,83.7,8.9,83.2,8.9z M83.4,13.9c0.6,0,1-0.3,1-0.9
			c0-0.6-0.4-0.9-1-0.9h-2v1.8H83.4z"/>
		<path class="st0" d="M90.6,15.4H89v-2.9l-2.8-5.1h1.7l1.9,3.3l1.9-3.3h1.7l-2.8,5.1V15.4z"/>
	</g>
	<g>
		<g>
			<path class="st0" d="M30.1,40.4h-3.6V21.2h3.6V40.4z"/>
			<path class="st0" d="M44.3,40.4h-3.5v-8c0-1.9-1.3-2.7-2.6-2.7c-1.3,0-2.6,0.8-2.6,2.7v8h-3.5V26.6h3.5v1.2
				c0.6-0.9,2-1.6,3.2-1.6c2.8,0,5.5,1.9,5.5,6V40.4z"/>
			<path class="st0" d="M53.2,37.2v3.2h-3.4c-2.4,0-3.5-1.3-3.5-3.5v-7.1v-3.2v-3.1h3.5v3.1h3.4v3.2h-3.4v6.3c0,0.6,0.2,1.1,1,1.1
				H53.2z"/>
			<path class="st0" d="M57.8,34.5L57.8,34.5c0,1.7,0.9,2.8,2.6,2.8c1.2,0,2.1-0.6,2.4-1.5h3.6c-0.6,2.9-2.6,4.7-6,4.7
				c-3.9,0-6.1-2.5-6.1-6.3v-1.8c0-3.8,2.2-6.3,6.1-6.3c3.9,0,6.1,2.5,6.1,6.3v2.1H57.8z M57.8,31.5L57.8,31.5l5.2,0v0
				c-0.1-1.4-1-2.3-2.6-2.3S58,30.1,57.8,31.5z"/>
			<path class="st0" d="M72.1,40.4h-3.5V26.6h3.5v1.5c0.4-0.9,1.6-1.7,3.2-1.7h1.1v3.4h-1.7c-1.3,0-2.6,0.8-2.6,2.7V40.4z"/>
			<path class="st0" d="M78,34.2h3.7c0.2,1.6,1.4,2.6,3.2,2.6c1.6,0,2.7-0.6,2.7-1.9c0-1-0.6-1.6-1.9-2l-3.1-0.9
				c-2.8-0.8-4.3-2.8-4.3-5.5c0-3.7,2.9-5.4,6.2-5.4c3.7,0,6,2.2,6.4,5.4h-3.7c-0.3-1.3-1.6-1.8-2.8-1.8c-1.5,0-2.6,0.6-2.6,1.9
				c0,1.1,0.9,1.6,1.9,1.8l3,0.8c2.9,0.8,4.4,2.5,4.4,5.7c0,3.4-2.2,5.4-6.2,5.4C80.9,40.4,78.2,37.9,78,34.2z"/>
			<path class="st0" d="M99.7,41.6c-0.7,2.1-1,3.6-3.4,3.6h-2.6V42h1.5c0.6,0,0.8-0.3,0.9-0.6l0.4-1.1l-4.9-13.7h3.7l3.1,8.8
				l3.1-8.8h3.7L99.7,41.6z"/>
			<path class="st0" d="M104.8,35.7h3.5c0.2,1.1,1.4,1.5,2.6,1.5c0.7,0,1.7-0.2,1.7-1.1c0-0.6-0.4-0.9-1.2-1.1l-2.9-0.6
				c-1.5-0.3-3.4-1.5-3.4-4.2c0-2.7,2.4-4.2,5.2-4.2c2.8,0,5.1,1.3,5.3,4.4h-3.6c-0.2-0.9-1-1.3-1.8-1.3c-1,0-1.6,0.4-1.6,1
				c0,0.6,0.5,0.9,1.1,1l3.1,0.7c1.5,0.3,3.3,1.4,3.3,4.2c0,3.1-2.5,4.2-5.4,4.2C107.9,40.4,104.9,38.9,104.8,35.7z"/>
			<path class="st0" d="M129.1,34.5L129.1,34.5c0,1.7,0.9,2.8,2.6,2.8c1.2,0,2.1-0.6,2.4-1.5h3.6c-0.6,2.9-2.6,4.7-6,4.7
				c-3.9,0-6.1-2.5-6.1-6.3v-1.8c0-3.8,2.2-6.3,6.1-6.3c3.9,0,6.1,2.5,6.1,6.3v2.1H129.1z M129.1,31.5L129.1,31.5l5.2,0v0
				c-0.1-1.4-1-2.3-2.6-2.3C130.2,29.2,129.3,30.1,129.1,31.5z"/>
			<path class="st0" d="M152,40.4h-3.5v-8c0-1.8-1.3-2.7-2.5-2.7c-1.3,0-2.5,0.8-2.5,2.7v8h-3.5V26.6h3.5v1.1
				c0.7-0.9,1.9-1.5,3.1-1.5c1.4,0,2.7,0.5,3.7,1.8c1-1.2,2.4-1.8,4.3-1.8c3.5,0,6,1.9,6,6v8.1H157v-8c0-1.8-1.3-2.7-2.5-2.7
				c-1.3,0-2.5,0.8-2.5,2.7V40.4z"/>
			<path class="st0" d="M161.9,35.7h3.5c0.2,1.1,1.4,1.5,2.6,1.5c0.7,0,1.7-0.2,1.7-1.1c0-0.6-0.4-0.9-1.2-1.1l-2.9-0.6
				c-1.5-0.3-3.4-1.5-3.4-4.2c0-2.7,2.4-4.2,5.2-4.2c2.8,0,5.1,1.3,5.3,4.4h-3.6c-0.2-0.9-1-1.3-1.8-1.3c-1,0-1.6,0.4-1.6,1
				c0,0.6,0.5,0.9,1.1,1l3.1,0.7c1.5,0.3,3.3,1.4,3.3,4.2c0,3.1-2.5,4.2-5.4,4.2C165,40.4,162,38.9,161.9,35.7z"/>
			<path class="st0" d="M124.1,37.2v3.2h-3.4c-2.4,0-3.5-1.3-3.5-3.5v-7.1v-3.2v-3.1h3.5v3.1h3.4v3.2h-3.4v6.3c0,0.6,0.2,1.1,1,1.1
				H124.1z"/>
		</g>
		<g>
			<path class="st0" d="M176.8,26c1.2,0,2.2,1,2.2,2.2c0,1.2-1,2.2-2.2,2.2c-1.2,0-2.2-1-2.2-2.2C174.6,27,175.6,26,176.8,26z
				 M176.8,30c1,0,1.8-0.8,1.8-1.8c0-1-0.8-1.8-1.8-1.8c-1,0-1.8,0.8-1.8,1.8C175,29.2,175.8,30,176.8,30z M177.8,29.4l-0.6-1.1
				c0.4-0.1,0.6-0.3,0.6-0.7c0-0.5-0.3-0.7-0.8-0.7h-1v2.5h0.4v-1.1h0.4l0.6,1.1H177.8z M176.3,27.3h0.6c0.2,0,0.4,0.1,0.4,0.3
				c0,0.2-0.1,0.3-0.4,0.3h-0.6V27.3z"/>
		</g>
	</g>
	<g>
		<polygon class="st1" points="6.4,7.3 0.6,4.4 0.6,41 12.1,46.8 12.1,40.3 6.4,37.5 		"/>
		<polygon class="st1" points="12.1,40.3 17.9,43.2 17.9,6.6 6.4,0.9 6.4,7.3 12.1,10.2 		"/>
	</g>
</g>
</svg>
