<?xml version="1.0" encoding="UTF-8"?>
<svg width="17px" height="17px" viewBox="0 0 17 17" version="1.1" xmlns="http://www.w3.org/2000/svg" xmlns:xlink="http://www.w3.org/1999/xlink">
    <!-- Generator: Sketch 61 (89581) - https://sketch.com -->
    <title>time</title>
    <desc>Created with Sketch.</desc>
    <g id="HIFI__V3" stroke="none" stroke-width="1" fill="none" fill-rule="evenodd">
        <g id="2-copy" transform="translate(-25.000000, -250.000000)" fill="#5E6977" fill-rule="nonzero">
            <g id="Time-Badge" transform="translate(25.000000, 250.000000)">
                <path d="M8.58,16.4609375 C12.8534375,16.4609375 16.3690625,12.9453125 16.3690625,8.671875 C16.3690625,4.3984375 12.8534375,0.8828125 8.58,0.8828125 C4.3065625,0.8828125 0.7909375,4.3984375 0.7909375,8.671875 C0.7909375,12.9453125 4.3065625,16.4609375 8.58,16.4609375 Z M8.58,14.5546875 C5.3221875,14.5546875 2.6971875,11.9296875 2.6971875,8.671875 C2.6971875,5.40625 5.314375,2.78125 8.58,2.78125 C11.8378125,2.78125 14.4628125,5.40625 14.470625,8.671875 C14.470625,11.9296875 11.845625,14.5546875 8.58,14.5546875 Z M8.58,9.7734375 C8.970625,9.7734375 9.283125,9.46875 9.283125,9.078125 L9.283125,4.453125 C9.283125,4.0625 8.970625,3.7578125 8.58,3.7578125 C8.189375,3.7578125 7.876875,4.0625 7.876875,4.453125 L7.876875,8.375 L5.04875,8.375 C4.658125,8.375 4.3534375,8.6796875 4.3534375,9.078125 C4.3534375,9.46875 4.658125,9.7734375 5.04875,9.7734375 L8.58,9.7734375 Z" id="time"></path>
            </g>
        </g>
    </g>
</svg>